<?xml version="1.0" encoding="UTF-8" standalone="no"?>
<!-- Created with Inkscape (http://www.inkscape.org/) -->

<svg
   xmlns:dc="http://purl.org/dc/elements/1.1/"
   xmlns:cc="http://creativecommons.org/ns#"
   xmlns:rdf="http://www.w3.org/1999/02/22-rdf-syntax-ns#"
   xmlns:svg="http://www.w3.org/2000/svg"
   xmlns="http://www.w3.org/2000/svg"
   xmlns:sodipodi="http://sodipodi.sourceforge.net/DTD/sodipodi-0.dtd"
   xmlns:inkscape="http://www.inkscape.org/namespaces/inkscape"
   version="1.1"
   id="svg4485"
   width="25"
   height="25"
   viewBox="0 0 300 278"
   sodipodi:docname="kievstar-logo.svg"
   inkscape:version="0.92.1 r15371">
  <metadata
     id="metadata4491">
    <rdf:RDF>
      <cc:Work
         rdf:about="">
        <dc:format>image/svg+xml</dc:format>
        <dc:type
           rdf:resource="http://purl.org/dc/dcmitype/StillImage" />
        <dc:title></dc:title>
      </cc:Work>
    </rdf:RDF>
  </metadata>
  <defs
     id="defs4489" />
  <sodipodi:namedview
     pagecolor="#ffffff"
     bordercolor="#666666"
     borderopacity="1"
     objecttolerance="10"
     gridtolerance="10"
     guidetolerance="10"
     inkscape:pageopacity="0"
     inkscape:pageshadow="2"
     inkscape:window-width="1920"
     inkscape:window-height="1017"
     id="namedview4487"
     showgrid="false"
     inkscape:zoom="1.078465"
     inkscape:cx="197.26114"
     inkscape:cy="155.13403"
     inkscape:window-x="-8"
     inkscape:window-y="-8"
     inkscape:window-maximized="1"
     inkscape:current-layer="svg4485" />
  <g
     id="g4495"
     transform="translate(-1.3113181)">
    <path
       style="fill:transparent"
       d="m 10.622627,263.81132 v -15.5 h -4 -4 v -123.5 V 1.3113201 h 150.000003 150 l -0.0354,127.2499999 c -0.0296,106.17412 -0.25482,126.85417 -1.36007,124.86007 -2.38853,-4.30943 -5.16935,-5.03671 -19.40339,-5.07463 l -13.29894,-0.0354 0.2989,15.50144 c 0.28804,14.93818 0.22623,15.50095 -1.7011,15.48788 -1.55152,-0.0105 -3.86371,-3.48657 -10.3112,-15.50144 l -8.3112,-15.48788 h -4.85544 -4.85544 l -8.32685,15.5 -8.32684,15.5 h -4.75652 -4.75651 v -12.5 -12.5 h 7 7 v -3 -3 h -17.5 -17.5 v 3 3 h 7 7 v 12.5 12.5 l -13.25,-0.0634 c -8.35865,-0.04 -12.47038,-0.37838 -11.13812,-0.91668 2.73638,-1.10562 6.38812,-5.76727 6.38812,-8.15479 0,-2.70177 -7.54352,-2.71872 -8.24963,-0.0185 -0.83885,3.20775 -15.68653,3.88558 -19.50037,0.89024 -0.7609,-0.5976 -1.25,-3.4165 -1.25,-7.2043 0,-8.45896 1.27327,-9.53254 11.30569,-9.53254 7.0546,0 7.77534,0.19403 9.28627,2.5 1.21327,1.85168 2.51588,2.5 5.02305,2.5 3.81975,0 4.27872,-1.37104 1.95999,-5.85497 -2.16125,-4.17943 -5.48303,-5.14506 -17.69898,-5.14506 -10.72423,0 -11.10679,0.0769 -13.8058,2.77593 -3.23297,3.23298 -4.56262,9.67463 -3.50367,16.97407 0.91869,6.33268 1.9885,8.15071 5.76219,9.79224 2.95406,1.285 2.45212,1.37782 -7.32874,1.35523 -6.91292,-0.016 -9.76789,-0.31968 -8.357,-0.88905 2.75041,-1.10993 5.357,-4.83428 5.357,-7.6542 0,-1.21042 -1.08018,-3.48449 -2.40039,-5.05347 -2.12626,-2.52692 -2.24047,-3.07142 -1,-4.76786 2.33958,-3.19957 1.76075,-8.10427 -1.23447,-10.46031 -2.38788,-1.87831 -3.98137,-2.07258 -17,-2.07258 h -14.36514 v 15.5 15.5 h -4.58975 -4.58975 l 0.33975,-15.50087 0.33975,-15.50088 -3.750003,8.8e-4 -3.75,8.7e-4 v 15.5 15.5 h -4.5 -4.5 v -15.5 -15.5 h -4.234353 c -4.059285,0 -4.700127,0.46445 -15.5,11.23369 L 54.622627,270.7787 v -11.23369 -11.23369 h -3.5 -3.5 v 15.5 15.5 h -3.030111 c -2.197289,0 -4.74308,-1.44296 -9.262517,-5.25 -3.427823,-2.8875 -7.982797,-6.63733 -10.122164,-8.33296 l -3.889759,-3.08297 3.402276,-2.47615 c 1.871251,-1.36188 6.102275,-4.47454 9.402275,-6.91703 l 6,-4.44089 -5.195398,-0.30037 c -5.060381,-0.29256 -5.417715,-0.1262 -13.75,6.40142 -4.705031,3.68598 -8.554602,7.02849 -8.554602,7.42779 0,0.39931 3.4875,3.78806 7.75,7.53055 4.2625,3.74248 8.408929,7.39764 9.214286,8.12256 1.222349,1.10028 -0.223365,1.31805 -8.75,1.31805 H 10.622627 Z m 86,-21.5 c 0,-2.7619 -0.277778,-3 -3.5,-3 -3.222222,0 -3.5,0.2381 -3.5,3 0,2.7619 0.277778,3 3.5,3 3.222222,0 3.5,-0.2381 3.5,-3 z m 10.000003,-0.0634 c 0,-2.85371 -0.22242,-3.04191 -3.25,-2.75 -2.70809,0.26111 -3.30276,0.77191 -3.566425,3.06336 -0.292846,2.54509 -0.05069,2.75 3.250005,2.75 3.31241,4e-5 3.56642,-0.21814 3.56642,-3.06332 z M 91.323259,214.27351 c -0.412384,-1.52431 60.760611,-63.20089 66.654941,-67.20366 7.62066,-5.17508 13.98951,-7.61512 24.2528,-9.29173 7.13826,-1.16611 9.41148,-2.12392 19,-8.00562 5.9904,-3.67457 11.44817,-7.20417 12.12838,-7.84357 1.60151,-1.50541 -31.43499,1.68843 -40.13983,3.88057 -9.11341,2.29502 -17.41559,6.74121 -24.41501,13.07532 -3.444,3.11664 -16.40845,18.66259 -28.80989,34.54656 -12.40144,15.88397 -22.725092,28.87994 -22.941441,28.87994 -0.37777,0 27.246241,-38.01865 38.146041,-52.5 9.77892,-12.99218 20.06853,-20.9261 32.26593,-24.87902 10.13009,-3.28294 10.49336,-3.34313 33.75204,-5.59172 l 20.09459,-1.94269 10.15541,-6.28473 c 5.58548,-3.4566 10.15541,-6.53854 10.15541,-6.84875 0,-0.31021 -3.4875,-0.22738 -7.75,0.18405 -4.2625,0.41144 -19,1.68841 -32.75,2.83772 -28.36355,2.3708 -37.32222,3.95633 -46.28679,8.19199 -7.85537,3.71156 -17.97445,13.06275 -24.14936,22.31677 -2.57499,3.85901 -11.36379,18.71638 -19.53065,33.01638 -13.541797,23.7114 -19.530021,33.4935 -14.997951,24.5 8.067401,-16.00905 30.544151,-56.71197 34.013271,-61.59428 8.86464,-12.47575 21.3742,-21.25224 35.53806,-24.93287 3.56316,-0.92592 23.38525,-3.1327 44.602,-4.9655 l 38.18858,-3.2989 8.31142,-5.039565 c 4.57128,-2.771758 9.21142,-5.729347 10.31142,-6.572419 l 2,-1.532859 -2,-0.02456 c -1.1,-0.0135 -10.775,0.638387 -21.5,1.448649 -10.725,0.810263 -31.52288,2.375062 -46.21751,3.477333 -35.73594,2.680617 -46.31414,5.034048 -58.88488,13.100671 -6.23753,4.00262 -15.65612,14.14078 -19.14855,20.6115 -2.42355,4.49033 -40.749063,96.58382 -40.749063,97.91713 0,0.28651 2.452784,-1.59665 5.450632,-4.1848 2.997848,-2.58816 5.360348,-5.03946 5.25,-5.44734 z m 2.299368,-8.33975 c 0,-0.20765 0.7875,-0.99515 1.75,-1.75 1.586056,-1.24387 1.621426,-1.2085 0.377555,0.37756 -1.306369,1.66575 -2.127555,2.19548 -2.127555,1.37244 z m -1,-4.62244 c 0.588702,-1.1 1.295368,-2 1.570368,-2 0.275,0 0.01833,0.9 -0.570368,2 -0.588702,1.1 -1.295368,2 -1.570368,2 -0.275,0 -0.01833,-0.9 0.570368,-2 z M 209.78718,186.63749 c -8.25904,-20.25439 -15.77362,-38.73867 -16.69907,-41.07617 -1.60508,-4.0541 -1.87537,-4.25 -5.86396,-4.25 -10.00397,0 -23.15524,5.4929 -32.75224,13.67964 -9.06826,7.73571 -62.835249,58.66773 -62.396474,59.1065 0.219679,0.21968 12.020164,-9.44449 26.223304,-21.47593 14.20314,-12.03145 26.93652,-22.6482 28.2964,-23.59278 3.26742,-2.26959 8.80693,-2.17308 12.52749,0.21824 1.65,1.0605 16.95,13.82385 34,28.363 17.05,14.53914 31.15322,26.30405 31.34049,26.14424 0.18727,-0.15981 -6.4169,-16.86234 -14.67594,-37.11674 z m -93.01746,-60.57617 c 9.12342,-17.71712 25.08376,-29.333156 46.80199,-34.062785 7.25915,-1.580841 10.04976,-2.603068 10.06586,-3.687215 C 173.69695,84.311438 153.10755,2.3202333 152.46052,3.9800131 152.06789,4.9872319 146.88124,25.61132 140.93463,49.81132 l -10.812,44 -3.5,-0.227469 c -5.39789,-0.350814 -42.963232,-3.1404 -57.500003,-4.269924 -24.031083,-1.867244 -33.096673,-2.194574 -31.5,-1.137366 2.929948,1.940012 74.473903,46.134759 74.684513,46.134759 0.11783,0 2.12599,-3.7125 4.46258,-8.25 z M 66.699103,268.32956 c 5.817062,-6.06003 10.879562,-11.01824 11.25,-11.01824 0.370438,0 0.673524,4.95 0.673524,11 v 11 l -11.25,0.0182 -11.25,0.0182 10.576476,-11.01824 z m 166.256607,6.99001 2.16692,-3.99175 8.56479,-0.008 8.56479,-0.008 1.68521,3.53393 c 0.92686,1.94366 1.68521,3.74366 1.68521,4 0,0.25584 -5.58761,0.46557 -12.41692,0.46557 h -12.41692 z m 43.66692,-1.00825 v -5 h 9.77749 c 10.44392,0 13.50336,-1.07606 15.23093,-5.357 0.58909,-1.45977 0.88502,0.64666 0.92819,6.607 l 0.0634,8.75 h -13 -13 z m -158,-4.5 v -3.5 h 8.41821 c 10.00129,0 11.58179,0.47762 11.58179,3.5 0,3.02238 -1.5805,3.5 -11.58179,3.5 h -8.41821 z m 120,-5.06462 c 0,-1.31256 4.30456,-10.43538 4.92388,-10.43538 0.76265,0 5.07612,8.5203 5.07612,10.02675 0,0.53529 -2.25,0.97325 -5,0.97325 -2.75,0 -5,-0.25408 -5,-0.56462 z m 38,-5.43538 v -5 h 7.8 c 8.55769,0 10.2,0.83159 10.2,5.16482 0,3.75659 -2.43912,4.83518 -10.93426,4.83518 h -7.06574 z m -158,-2 v -3.07505 l 9.25,0.28752 c 9.12333,0.28359 9.25,0.32177 9.25,2.78753 0,2.46576 -0.12667,2.50394 -9.25,2.78753 l -9.25,0.28752 z"
       id="path4499"
       inkscape:connector-curvature="0" />
    <path
       style="fill:#068dce"
       d="m 3.2892937,278.64465 c -0.3666667,-0.36666 -0.6666667,-7.34166 -0.6666667,-15.5 v -14.83333 h 4 4 v 15.5 15.5 H 7.2892937 c -1.8333334,0 -3.6333334,-0.3 -4,-0.66667 z m 18.5597893,-7.40307 c -5.074551,-4.43836 -9.226456,-8.42022 -9.226456,-8.84859 0,-0.42836 3.849571,-3.79464 8.554602,-7.48062 8.332285,-6.52762 8.689619,-6.69398 13.75,-6.40142 l 5.195398,0.30037 -6.886972,5 c -3.787835,2.75 -7.988511,5.90961 -9.334837,7.02135 l -2.447865,2.02135 8.408205,6.66336 c 11.901303,9.43158 12.127379,9.79394 6.11037,9.79394 -4.694619,0 -5.27547,-0.33191 -14.122445,-8.06974 z m 25.773544,-7.43026 v -15.5 h 3.5 3.5 v 11.23369 11.23369 l 11.265647,-11.23369 c 10.799873,-10.76924 11.440715,-11.23369 15.5,-11.23369 h 4.234353 v 15.5 15.5 h -3.5 -3.5 v -11 c 0,-6.05 -0.303086,-11 -0.673524,-11 -0.370438,0 -5.432938,4.95821 -11.25,11.01824 -10.229139,10.65639 -10.716048,11.01764 -14.826476,11 l -4.25,-0.0182 z m 47,0 v -15.5 h 4.116631 c 3.781092,0 4.067492,0.18339 3.513652,2.25 -0.33163,1.2375 -0.60912,8.2125 -0.61663,15.5 l -0.0136,13.25 h -3.500003 -3.5 z m 16.000003,0.0704 v -15.57039 h 14.36514 c 13.01863,0 14.61212,0.19427 17,2.07258 2.99522,2.35604 3.57405,7.26074 1.23447,10.46031 -1.24047,1.69644 -1.12626,2.24094 1,4.76786 3.0478,3.62211 3.04451,6.83816 -0.0107,10.39349 l -2.41101,2.80575 -15.58895,0.32039 -15.58895,0.3204 v -15.5704 z m 26.41821,8.82262 c 0.86999,-0.33385 1.58179,-1.63571 1.58179,-2.89302 0,-3.02238 -1.5805,-3.5 -11.58179,-3.5 h -8.41821 v 3.5 3.5 h 8.41821 c 4.63002,0 9.13002,-0.27314 10,-0.60699 z m 0.0818,-15.39302 c 0,-2.46576 -0.12667,-2.50394 -9.25,-2.78753 l -9.25,-0.28752 v 3.07505 3.07505 l 9.25,-0.28752 c 9.12333,-0.28359 9.25,-0.32177 9.25,-2.78753 z m 19.82874,20.58645 c -3.77936,-1.69669 -4.84532,-3.51635 -5.76219,-9.83645 -1.05895,-7.29944 0.2707,-13.74109 3.50367,-16.97407 2.69901,-2.69901 3.08157,-2.77593 13.8058,-2.77593 12.21595,0 15.53773,0.96563 17.69898,5.14503 2.31873,4.48393 1.85976,5.85497 -1.95999,5.85497 -2.50717,0 -3.80978,-0.64832 -5.02305,-2.5 -1.51618,-2.31398 -2.22009,-2.5 -9.46003,-2.5 -9.8896,0 -11.13193,1.08323 -11.13193,9.7063 0,3.64879 0.49597,6.43834 1.25,7.03054 2.07617,1.6306 7.64244,2.29327 13.48998,1.60601 4.20151,-0.49381 5.64333,-1.09263 6.01039,-2.49625 0.36494,-1.39556 1.43143,-1.8466 4.36626,-1.8466 3.20641,0 3.88337,0.34589 3.88337,1.98422 0,1.09133 -1.31214,3.45383 -2.91586,5.25 l -2.91586,3.26578 -10.83414,0.25507 c -7.6941,0.18115 -11.75326,-0.15755 -14.0054,-1.16862 z m 48.67126,-11.08645 v -12.5 h -7 -7 v -3 -3 h 17.5 17.5 v 3 3 h -7 -7 v 12.5 12.5 h -3.5 -3.5 z m 17,12.06539 c 0,-0.30228 3.6423,-7.30315 8.094,-15.5575 l 8.09399,-15.00789 h 4.83234 4.83233 l 8.07367,14.92443 c 4.44052,8.20843 8.07367,15.18343 8.07367,15.5 0,0.31656 -1.95666,0.57557 -4.34813,0.57557 -4.10552,0 -4.44876,-0.22318 -6.15187,-4 l -1.80375,-4 -8.59812,0.003 -8.59813,0.003 -2,3.7473 c -1.76929,3.31503 -2.49026,3.78277 -6.25,4.0548 -2.3375,0.16912 -4.25,0.0602 -4.25,-0.24211 z m 26,-14.53864 c 0,-1.50645 -4.31347,-10.02675 -5.07612,-10.02675 -0.61932,0 -4.92388,9.12282 -4.92388,10.43538 0,0.31054 2.25,0.56462 5,0.56462 2.75,0 5,-0.43796 5,-0.97325 z m 20.66667,14.30658 c -0.36667,-0.36666 -0.66667,-7.34166 -0.66667,-15.5 v -14.83333 h 13.04966 c 14.67815,0 17.85961,0.95253 19.93765,5.96936 1.77693,4.28989 0.6486,10.03677 -2.50931,12.78064 -2.31203,2.00889 -3.65516,2.25 -12.53376,2.25 h -9.94424 v 5 5 h -3.33333 c -1.83334,0 -3.63334,-0.3 -4,-0.66667 z m 23.39907,-15.36851 c 2.19222,-1.17324 2.63573,-5.86335 0.73426,-7.76482 -0.72821,-0.72821 -4.26667,-1.2 -9,-1.2 h -7.8 v 5 5 h 7.06574 c 3.88616,0 7.93616,-0.46583 9,-1.03518 z M 89.622627,242.31132 c 0,-2.7619 0.277778,-3 3.5,-3 3.222222,0 3.5,0.2381 3.5,3 0,2.7619 -0.277778,3 -3.5,3 -3.222222,0 -3.5,-0.2381 -3.5,-3 z m 10.183578,0.25 c 0.263665,-2.29145 0.858335,-2.80225 3.566425,-3.06336 3.02758,-0.29191 3.25,-0.10371 3.25,2.75 0,2.84518 -0.25401,3.06336 -3.56642,3.06336 -3.30069,0 -3.542851,-0.20491 -3.250005,-2.75 z M 80.622627,223.90565 c 0,-1.33331 38.325513,-93.4268 40.749063,-97.91713 3.49243,-6.47072 12.91102,-16.60888 19.14855,-20.6115 12.57074,-8.066618 23.14894,-10.420049 58.88488,-13.100666 14.69463,-1.102271 35.49251,-2.66707 46.21751,-3.477333 10.725,-0.810262 20.4,-1.462154 21.5,-1.448649 l 2,0.02456 -2,1.532859 c -1.1,0.843072 -5.74014,3.800661 -10.31142,6.572419 l -8.31142,5.03956 -38.18858,3.29891 c -21.21675,1.8328 -41.03884,4.03958 -44.602,4.9655 -14.16386,3.68063 -26.67342,12.45712 -35.53806,24.93287 -3.46912,4.88231 -25.94587,45.58523 -34.013271,61.59428 -4.53207,8.9935 1.456154,-0.7886 14.997951,-24.5 8.16686,-14.3 16.95566,-29.15737 19.53065,-33.01638 6.17491,-9.25402 16.29399,-18.60521 24.14936,-22.31677 8.96457,-4.23566 17.92324,-5.82119 46.28679,-8.19199 13.75,-1.14931 28.4875,-2.42628 32.75,-2.83772 4.2625,-0.41143 7.75,-0.49426 7.75,-0.18405 0,0.31021 -4.56993,3.39215 -10.15541,6.84875 l -10.15541,6.28473 -20.09459,1.94269 c -23.25868,2.24859 -23.62195,2.30878 -33.75204,5.59172 -12.1974,3.95292 -22.48701,11.88684 -32.26593,24.87902 -10.8998,14.48135 -38.523811,52.5 -38.146041,52.5 0.216349,0 10.540001,-12.99597 22.941441,-28.87994 12.40144,-15.88397 25.36589,-31.42992 28.80989,-34.54656 6.99942,-6.33411 15.3016,-10.7803 24.41501,-13.07532 8.70484,-2.19214 41.74134,-5.38598 40.13983,-3.88057 -0.68021,0.6394 -6.13798,4.169 -12.12838,7.84357 -9.58852,5.8817 -11.86174,6.83951 -19,8.00562 -10.26329,1.67661 -16.63214,4.11665 -24.2528,9.29173 -5.89433,4.00277 -67.067325,65.67935 -66.654941,67.20366 0.110348,0.40788 -2.252152,2.85918 -5.25,5.44734 -2.997848,2.58814 -5.450632,4.4713 -5.450632,4.18479 z m 15.127555,-19.34433 c 1.243871,-1.58606 1.208501,-1.62143 -0.377555,-0.37756 -0.9625,0.75485 -1.75,1.54235 -1.75,1.75 0,0.82304 0.821186,0.29331 2.127555,-1.37244 z m -2.127555,-3.25 c 0.588702,-1.1 0.845368,-2 0.570368,-2 -0.275,0 -0.981666,0.9 -1.570368,2 -0.588702,1.1 -0.845368,2 -0.570368,2 0.275,0 0.981666,-0.9 1.570368,-2 z m 99.500003,-3.70133 c -17.05,-14.53915 -32.35,-27.3025 -34,-28.363 -3.72056,-2.39132 -9.26007,-2.48783 -12.52749,-0.21824 -1.35988,0.94458 -14.09326,11.56133 -28.2964,23.59278 -14.20314,12.03144 -26.003625,21.69561 -26.223304,21.47593 -0.438775,-0.43877 53.328214,-51.37079 62.396474,-59.1065 9.597,-8.18674 22.74827,-13.67964 32.75224,-13.67964 3.98859,0 4.25888,0.1959 5.86396,4.25 0.92545,2.3375 8.44003,20.82178 16.69907,41.07617 8.25904,20.2544 14.86321,36.95693 14.67594,37.11674 -0.18727,0.15981 -14.29049,-11.6051 -31.34049,-26.14424 z M 75.607761,111.74054 C 55.540937,99.32661 38.447627,88.72282 37.622627,88.176561 c -1.596673,-1.057208 7.468917,-0.729878 31.5,1.137366 14.536771,1.129524 52.102113,3.91911 57.500003,4.269924 l 3.5,0.227469 10.812,-44 c 5.94661,-24.2 11.13326,-44.8240881 11.52589,-45.8313069 0.64703,-1.6597798 21.23643,80.3314249 21.17705,84.3313069 -0.0161,1.084147 -2.80671,2.106374 -10.06586,3.687215 -21.71823,4.729629 -37.67857,16.345665 -46.80199,34.062785 -2.33659,4.5375 -4.34475,8.25 -4.46258,8.25 -0.11783,0 -16.632555,-10.15685 -36.699379,-22.57078 z"
       id="path4497"
       inkscape:connector-curvature="0" />
  </g>
</svg>
